FFmpeg version SVN-r25716, Copyright (c) 2000-2010 the FFmpeg developers  built on Nov 10 2010 12:23:18 with gcc 4.1.2 20080704 (Red Hat 4.1.2-48)  configuration: --enable-libmp3lame --enable-shared --disable-mmx --arch=x86_64  libavutil     50.33. 0 / 50.33. 0  libavcore      0.12. 1 /  0.12. 1  libavcodec    52.94. 4 / 52.94. 4  libavformat   52.84. 0 / 52.84. 0  libavdevice   52. 2. 2 / 52. 2. 2  libavfilter    1.59. 0 /  1.59. 0  libswscale     0.12. 0 /  0.12. 0Input #0, avi, from '/RAID10/data/converted_video_files/47658.avi':  Duration: 00:00:10.90, start: 0.000000, bitrate: 188393 kb/s    Stream #0.0: Video: msvideo1, rgb555le, 1024x1024, 20 tbr, 20 tbn, 20 tbc[buffer @ 0xbb842f0] w:1024 h:1024 pixfmt:rgb555le[ffsink @ 0xbba1f70] auto-inserting filter 'auto-inserted scaler 0' between the filter 'src' and the filter 'out'[scale @ 0xbba2290] w:1024 h:1024 fmt:rgb555le -> w:1024 h:1024 fmt:yuv420p flags:0x4Output #0, flv, to '/RAID10/data/converted_video_files/47658.flv':  Metadata:    encoder         : Lavf52.84.0    Stream #0.0: Video: flv, yuv420p, 1024x1024, q=2-31, 600 kb/s, 1k tbn, 24 tbcStream mapping:  Stream #0.0 -> #0.0Press [q] to stop encodingframe=    7 fps=  0 q=6.3 size=     968kB time=0.33 bitrate=23738.0kbits/s    frame=   11 fps=  8 q=17.2 size=    1013kB time=0.54 bitrate=15338.2kbits/s    frame=   18 fps= 10 q=24.8 size=    1048kB time=0.88 bitrate=9814.6kbits/s    frame=   25 fps= 11 q=31.0 size=    1054kB time=1.25 bitrate=6906.9kbits/s    frame=   33 fps= 11 q=31.0 size=    1087kB time=1.62 bitrate=5481.5kbits/s    frame=   43 fps= 13 q=31.0 size=    1122kB time=2.12 bitrate=4326.3kbits/s    frame=   53 fps= 14 q=31.0 size=    1130kB time=2.62 bitrate=3526.8kbits/s    frame=   64 fps= 14 q=31.0 size=    1164kB time=3.21 bitrate=2972.0kbits/s    frame=   73 fps= 15 q=31.0 size=    1197kB time=3.62 bitrate=2705.0kbits/s    frame=   83 fps= 15 q=31.0 size=    1230kB time=4.12 bitrate=2442.7kbits/s    frame=   92 fps= 15 q=31.0 size=    1262kB time=4.58 bitrate=2256.6kbits/s    frame=  103 fps= 16 q=31.0 size=    1297kB time=5.12 bitrate=2073.8kbits/s    frame=  112 fps= 16 q=31.0 size=    1304kB time=5.58 bitrate=1912.4kbits/s    frame=  123 fps= 16 q=31.0 size=    1338kB time=6.12 bitrate=1789.9kbits/s    frame=  133 fps= 16 q=31.0 size=    1372kB time=6.62 bitrate=1696.9kbits/s    frame=  141 fps= 16 q=31.0 size=    1405kB time=7.04 bitrate=1634.1kbits/s    frame=  149 fps= 16 q=31.0 size=    1410kB time=7.46 bitrate=1549.0kbits/s    frame=  157 fps= 16 q=31.0 size=    1441kB time=7.83 bitrate=1507.3kbits/s    frame=  166 fps= 16 q=31.0 size=    1474kB time=8.29 bitrate=1455.9kbits/s    frame=  176 fps= 16 q=31.0 size=    1508kB time=8.79 bitrate=1405.1kbits/s    frame=  184 fps= 16 q=31.0 size=    1514kB time=9.21 bitrate=1346.5kbits/s    frame=  194 fps= 16 q=31.0 size=    1547kB time=9.71 bitrate=1305.6kbits/s    frame=  205 fps= 17 q=31.0 size=    1582kB time=10.25 bitrate=1264.5kbits/s    frame=  213 fps= 17 q=31.0 size=    1614kB time=10.62 bitrate=1244.5kbits/s    frame=  218 fps= 17 q=31.0 Lsize=    1617kB time=10.87 bitrate=1218.3kbits/s    video:1614kB audio:0kB global headers:0kB muxing overhead 0.223811%